<svg viewBox="0 0 200 200" fill="none" xmlns="http://www.w3.org/2000/svg">
<rect x="0" y="0" width="200" height="200" rx="9.5" fill="#3277d9" stroke="#C4C4C4"/>
<path fill-rule="evenodd" clip-rule="evenodd" d="M98.101 89.9796V76.6165C98.101 75.9384 98.0549 75.2855 97.962 74.6562C97.8691 74.0268 97.6987 73.4868 97.4519 73.0346C97.2035 72.5829 96.8715 72.2201 96.4538 71.9461C96.0361 71.6721 95.4864 71.5345 94.8065 71.5345C94.1563 71.5345 93.5918 71.6795 93.1126 71.9701C92.6322 72.2602 92.2304 72.6477 91.9056 73.1315C91.5807 73.6158 91.3406 74.1718 91.1861 74.8012C91.0311 75.4306 90.9542 76.084 90.9542 76.7615V89.9796H83.3429V76.0353C83.3429 74.6481 83.0796 73.551 82.5536 72.7445C82.0276 71.938 81.1922 71.5345 80.0478 71.5345C78.8408 71.5345 77.9048 72.0349 77.2398 73.0346C76.5742 74.0354 76.2422 75.2609 76.2422 76.7128V89.9796H68.5842V65.6775H75.9635V69.0176H76.0564C76.3345 68.5017 76.683 68.0013 77.1007 67.5169C77.5179 67.0331 78.0208 66.6055 78.6089 66.2347C79.1964 65.8638 79.8538 65.5652 80.5815 65.3388C81.3076 65.1135 82.1051 65 82.9713 65C84.6422 65 86.058 65.356 87.2178 66.065C88.3786 66.7752 89.2833 67.7915 89.9329 69.1144C90.7063 67.8557 91.6967 66.856 92.9037 66.1132C94.1101 65.3714 95.5793 65 97.3123 65C98.8903 65 100.213 65.2986 101.281 65.8953C102.348 66.4932 103.207 67.2676 103.856 68.2191C104.506 69.1706 104.977 70.2356 105.272 71.413C105.566 72.5915 105.713 73.7448 105.713 74.874V89.9796H98.101Z" fill="white"/>
<path fill-rule="evenodd" clip-rule="evenodd" d="M140.813 89.9733V76.6136C140.813 75.9357 140.756 75.291 140.644 74.6778C140.531 74.0658 140.346 73.5248 140.089 73.0566C139.831 72.5896 139.468 72.2182 139.002 71.9443C138.535 71.6704 137.947 71.5329 137.239 71.5329C136.53 71.5329 135.911 71.6704 135.38 71.9443C134.848 72.2182 134.405 72.597 134.051 73.0807C133.697 73.5649 133.431 74.1214 133.255 74.7506C133.077 75.3798 132.989 76.0325 132.989 76.7099V89.9796H125.02V65.6774H132.699V69.0166H132.795C133.085 68.5008 133.463 67.9925 133.931 67.4922C134.397 66.9925 134.945 66.565 135.573 66.2097C136.2 65.8556 136.884 65.565 137.625 65.3387C138.366 65.1135 139.155 65 139.992 65C141.602 65 142.97 65.2905 144.097 65.871C145.224 66.4521 146.133 67.2017 146.826 68.1214C147.518 69.0406 148.017 70.0973 148.323 71.2905C148.629 72.4847 148.782 73.6784 148.782 74.8715V89.9733H140.813Z" fill="white"/>
<path fill-rule="evenodd" clip-rule="evenodd" d="M168.089 89.9799H175.515V66.4697H168.089V89.9799Z" fill="white"/>
<path fill-rule="evenodd" clip-rule="evenodd" d="M105.876 119.703C105.24 119.107 104.494 118.604 103.635 118.195C102.777 117.787 101.87 117.582 100.917 117.582C100.185 117.582 99.5102 117.724 98.8901 118.006C98.27 118.289 97.96 118.777 97.96 119.468C97.96 120.127 98.3016 120.599 98.9856 120.881C99.6689 121.164 100.774 121.479 102.3 121.824C103.189 122.013 104.088 122.28 104.994 122.626C105.9 122.971 106.718 123.426 107.45 123.992C108.181 124.558 108.769 125.249 109.214 126.066C109.659 126.883 109.882 127.857 109.882 128.988C109.882 130.465 109.579 131.714 108.976 132.735C108.372 133.756 107.585 134.581 106.615 135.209C105.645 135.838 104.557 136.294 103.349 136.576C102.14 136.859 100.932 137 99.7248 137C97.7854 137 95.8856 136.693 94.0259 136.081C92.1661 135.468 90.6164 134.565 89.3762 133.371L93.7638 128.8C94.4624 129.554 95.3208 130.182 96.3385 130.684C97.3557 131.188 98.4372 131.439 99.5814 131.439C100.217 131.439 100.845 131.29 101.465 130.991C102.085 130.693 102.395 130.166 102.395 129.412C102.395 128.69 102.013 128.156 101.251 127.81C100.488 127.465 99.295 127.103 97.6742 126.726C96.8468 126.538 96.0206 126.286 95.1943 125.971C94.367 125.658 93.6283 125.234 92.9765 124.699C92.3248 124.165 91.7923 123.505 91.3794 122.72C90.9654 121.935 90.7593 120.992 90.7593 119.892C90.7593 118.478 91.0609 117.276 91.6652 116.286C92.2689 115.297 93.0483 114.488 94.0021 113.859C94.956 113.231 96.0121 112.768 97.1733 112.469C98.3333 112.17 99.4859 112.021 100.631 112.021C102.411 112.021 104.151 112.296 105.852 112.846C107.553 113.396 108.992 114.22 110.168 115.32L105.876 119.703Z" fill="white"/>
<path fill-rule="evenodd" clip-rule="evenodd" d="M39.583 83.5095C36.2227 83.5095 33.4989 80.8145 33.4989 77.4898C33.4989 74.1656 36.2227 71.4701 39.583 71.4701C42.9427 71.4701 45.3452 74.1656 45.3452 77.4898C45.3452 80.8145 42.9427 83.5095 39.583 83.5095ZM39.6235 65C32.6519 65 27 70.592 27 77.4898C27 84.3881 32.6519 89.9796 39.6235 89.9796C46.5956 89.9796 52.2475 84.3881 52.2475 77.4898C52.2475 70.592 46.5956 65 39.6235 65Z" fill="white"/>
<path fill-rule="evenodd" clip-rule="evenodd" d="M142.996 128.709C141.99 129.831 140.556 130.53 138.876 130.53C135.572 130.53 132.895 127.835 132.895 124.511C132.895 121.186 135.572 118.491 138.876 118.491C140.556 118.491 141.99 119.19 142.996 120.312L147.297 115.3C145.089 113.264 142.147 112.021 138.916 112.021C132.062 112.021 126.505 117.612 126.505 124.511C126.505 131.408 132.062 137 138.916 137C142.147 137 145.089 135.757 147.297 133.721L142.996 128.709Z" fill="white"/>
<path fill-rule="evenodd" clip-rule="evenodd" d="M177 100.265C177 102.7 175.005 104.674 172.545 104.674C170.084 104.674 168.089 102.7 168.089 100.265C168.089 97.831 170.084 95.8574 172.545 95.8574C175.005 95.8574 177 97.831 177 100.265Z" fill="white"/>
<path fill-rule="evenodd" clip-rule="evenodd" d="M168.089 135.531H175.515V112.021H168.089V135.531Z" fill="white"/>
</svg>
